HIERARCHY
ROOT hip
{
  OFFSET 0 0 0
  CHANNELS 6 Xposition Yposition Zposition Zrotation Yrotation Xrotation
  JOINT abdomen
  {
    OFFSET 0 20.6881 -0.73152
    CHANNELS 3 Zrotation Xrotation Yrotation
    JOINT chest
    {
      OFFSET 0 11.7043 -0.48768
      CHANNELS 3 Zrotation Xrotation Yrotation
      JOINT neck
      {
        OFFSET 0 22.1894 -2.19456
        CHANNELS 3 Zrotation Xrotation Yrotation
        JOINT head
        {
          OFFSET -0.24384 7.07133 1.2192
          CHANNELS 3 Zrotation Xrotation Yrotation
          JOINT leftEye
          {
            OFFSET 4.14528 8.04674 8.04672
            CHANNELS 3 Zrotation Xrotation Yrotation
            End Site
            {
              OFFSET 1 0 0
            }
          }
          JOINT rightEye
          {
            OFFSET -3.6576 8.04674 8.04672
            CHANNELS 3 Zrotation Xrotation Yrotation
            End Site
            {
              OFFSET 1 0 0
            }
          }
        }
      }
      JOINT rCollar
      {
        OFFSET -2.68224 19.2634 -4.8768
        CHANNELS 3 Zrotation Xrotation Yrotation
        JOINT rShldr
        {
          OFFSET -8.77824 -1.95073 1.46304
          CHANNELS 3 Zrotation Xrotation Yrotation
          JOINT rForeArm
          {
            OFFSET -28.1742 -1.7115 0.48768
            CHANNELS 3 Zrotation Xrotation Yrotation
            JOINT rHand
            {
              OFFSET -22.5879 0.773209 7.07136
              CHANNELS 3 Zrotation Xrotation Yrotation
              JOINT rThumb1
              {
                OFFSET -1.2192 -0.487915 3.41376
                CHANNELS 3 Zrotation Xrotation Yrotation
                JOINT rThumb2
                {
                  OFFSET -3.37035 -0.52449 3.41376
                  CHANNELS 3 Zrotation Xrotation Yrotation
                  End Site
                  {
                    OFFSET -1.78271 -1.18214 1.43049
                  }
                }
              }
              JOINT rIndex1
              {
                OFFSET -7.75947 0.938293 5.60832
                CHANNELS 3 Zrotation Xrotation Yrotation
                JOINT rIndex2
                {
                  OFFSET -2.54057 -0.884171 1.56538
                  CHANNELS 3 Zrotation Xrotation Yrotation
                  End Site
                  {
                    OFFSET -1.62519 -0.234802 1.16502
                  }
                }
              }
              JOINT rMid1
              {
                OFFSET -8.24714 1.18213 3.41376
                CHANNELS 3 Zrotation Xrotation Yrotation
                JOINT rMid2
                {
                  OFFSET -3.10165 -0.590103 1.0647
                  CHANNELS 3 Zrotation Xrotation Yrotation
                  End Site
                  {
                    OFFSET -2.48547 -0.328903 0.83742
                  }
                }
              }
              JOINT rRing1
              {
                OFFSET -8.82822 0.546677 1.51678
                CHANNELS 3 Zrotation Xrotation Yrotation
                JOINT rRing2
                {
                  OFFSET -2.60934 -0.819778 -0.0198488
                  CHANNELS 3 Zrotation Xrotation Yrotation
                  End Site
                  {
                    OFFSET -2.33842 -0.294052 0.168128
                  }
                }
              }
              JOINT rPinky1
              {
                OFFSET -8.27202 -0.0477905 -0.4584
                CHANNELS 3 Zrotation Xrotation Yrotation
                JOINT rPinky2
                {
                  OFFSET -1.82734 -0.647385 -0.700984
                  CHANNELS 3 Zrotation Xrotation Yrotation
                  End Site
                  {
                    OFFSET -1.69225 -0.51767 -0.607171
                  }
                }
              }
            }
          }
        }
      }
      JOINT lCollar
      {
        OFFSET 2.68224 19.2634 -4.8768
        CHANNELS 3 Zrotation Xrotation Yrotation
        JOINT lShldr
        {
          OFFSET 8.77824 -1.95073 1.46304
          CHANNELS 3 Zrotation Xrotation Yrotation
          JOINT lForeArm
          {
            OFFSET 28.1742 -1.7115 0.48768
            CHANNELS 3 Zrotation Xrotation Yrotation
            JOINT lHand
            {
              OFFSET 22.5879 0.773209 7.07136
              CHANNELS 3 Zrotation Xrotation Yrotation
              JOINT lThumb1
              {
                OFFSET 1.2192 -0.487915 3.41376
                CHANNELS 3 Zrotation Xrotation Yrotation
                JOINT lThumb2
                {
                  OFFSET 3.37035 -0.52449 3.41376
                  CHANNELS 3 Zrotation Xrotation Yrotation
                  End Site
                  {
                    OFFSET 1.78271 -1.18214 1.43049
                  }
                }
              }
              JOINT lIndex1
              {
                OFFSET 7.75947 0.938293 5.60832
                CHANNELS 3 Zrotation Xrotation Yrotation
                JOINT lIndex2
                {
                  OFFSET 2.54057 -0.884171 1.56538
                  CHANNELS 3 Zrotation Xrotation Yrotation
                  End Site
                  {
                    OFFSET 1.62519 -0.234802 1.16502
                  }
                }
              }
              JOINT lMid1
              {
                OFFSET 8.24714 1.18213 3.41376
                CHANNELS 3 Zrotation Xrotation Yrotation
                JOINT lMid2
                {
                  OFFSET 3.10165 -0.590103 1.0647
                  CHANNELS 3 Zrotation Xrotation Yrotation
                  End Site
                  {
                    OFFSET 2.48547 -0.328903 0.83742
                  }
                }
              }
              JOINT lRing1
              {
                OFFSET 8.82822 0.546677 1.51678
                CHANNELS 3 Zrotation Xrotation Yrotation
                JOINT lRing2
                {
                  OFFSET 2.60934 -0.819778 -0.0198488
                  CHANNELS 3 Zrotation Xrotation Yrotation
                  End Site
                  {
                    OFFSET 2.33842 -0.294052 0.168128
                  }
                }
              }
              JOINT lPinky1
              {
                OFFSET 8.27202 -0.0477905 -0.4584
                CHANNELS 3 Zrotation Xrotation Yrotation
                JOINT lPinky2
                {
                  OFFSET 1.82734 -0.647385 -0.700984
                  CHANNELS 3 Zrotation Xrotation Yrotation
                  End Site
                  {
                    OFFSET 1.69225 -0.51767 -0.607171
                  }
                }
              }
            }
          }
        }
      }
    }
  }
  JOINT rButtock
  {
    OFFSET -8.77824 4.35084 1.2192
    CHANNELS 3 Zrotation Xrotation Yrotation
    JOINT rThigh
    {
      OFFSET 0 -1.70687 -2.19456
      CHANNELS 3 Zrotation Xrotation Yrotation
      JOINT rShin
      {
        OFFSET 0 -36.8199 0.73152
        CHANNELS 3 Zrotation Xrotation Yrotation
        JOINT rFoot
        {
          OFFSET 0.73152 -45.1104 -5.12064
          CHANNELS 3 Zrotation Xrotation Yrotation
          End Site
          {
            OFFSET -1.1221 -3.69964 12.103
          }
        }
      }
    }
  }
  JOINT lButtock
  {
    OFFSET 8.77824 4.35084 1.2192
    CHANNELS 3 Zrotation Xrotation Yrotation
    JOINT lThigh
    {
      OFFSET 0 -1.70687 -2.19456
      CHANNELS 3 Zrotation Xrotation Yrotation
      JOINT lShin
      {
        OFFSET 0 -36.8199 0.73152
        CHANNELS 3 Zrotation Xrotation Yrotation
        JOINT lFoot
        {
          OFFSET -0.73152 -45.1104 -5.12064
          CHANNELS 3 Zrotation Xrotation Yrotation
          End Site
          {
            OFFSET 1.1221 -3.69964 12.103
          }
        }
      }
    }
  }
}
MOTION
Frames:	4
Frame Time:	0.03333
-62.8942 52.822100000000006 66.53869999999999 -146.110957 76.964669 -143.509877 -0.950176 9.074479 -154.172209 -0.25299 3.310668 160.187339 11.112704 25.718232 112.096977 -35.96931 17.000292 -84.073796 0.000321 0.0 0.000193 0.000321 0.0 0.000193 -155.460403 -3.227868 161.777234 -47.805253 -9.850686 46.452811 -12.894856 25.644547 -136.315983 -157.336427 11.4834 139.837572 76.384251 -49.200477 28.871739 -56.163492 31.918465 19.526895 1.507239 -2.484328 -0.829557 -177.57591 -34.42991 106.367529 -158.521041 -0.191949 142.146297 -42.473203 58.278938 36.599185 0.001206 0.063943 0.018922 9.070826 14.186128 1.887446 -1.17821 -2.985245 -1.092568 -85.16852 -53.922602 -84.748832 150.168874 21.53545 -155.275815 -5.439979 15.122526 47.929313 178.219415 69.308474 164.131308 82.814284 84.406683 -83.092681 10.204024 9.661903 -2.404907 146.750423 -52.532609 -113.198765 108.428071 34.161778 -91.743348 -6.469162 -0.059106 6.568657 169.090626 -33.247288 -145.374565 -13.251827 -30.015155 0.996739 -0.00613 1.770352 -0.556794 -8.428287 18.546782 -2.575117 -26.961891 80.123388 -10.148449 153.743344 29.264125 146.179102 -0.0003 -0.000349 -0.00015 -18.332639 -12.480484 -0.0 2.901633 70.358965 32.220646 -71.761441 30.133648 -13.687728 0.000115 -0.000349 0.000173 56.992075 -59.95397 53.640365 36.254312 66.346755 37.671069 -98.064507 47.170576 26.89422
-64.396 52.971199999999996 68.872 -153.641781 76.440708 -151.815574 -3.512782 14.547623 0.741559 2.410308 -7.368797 4.874374 10.597501 20.713318 82.8173 -34.202055 -0.648 -60.611739 0.00378 -0.0 -0.001283 -0.001833 0.0 -4.9e-05 -159.220451 -49.037686 170.636609 127.85038 -11.921563 175.530488 -7.806156 -28.749827 104.46961 -11.744891 -49.931718 -12.715436 -5.433536 5.264991 1.077984 -122.630199 -16.984939 108.864405 10.746789 -19.048083 -4.724848 2.912808 14.794432 2.435618 6.531883 -20.415102 -2.718805 -34.442671 55.144774 28.976794 -8.5e-05 0.063818 0.02021 -156.119036 -13.745111 173.481656 1.136159 3.040405 1.043103 -156.288532 44.187137 -149.265941 157.67956 -66.55947 -175.831546 107.743345 -8.761898 173.262086 -5.914554 27.230465 50.877168 -102.902908 -59.733798 -104.740652 -4.654908 -4.638237 0.529797 -44.160354 -74.411744 17.669467 64.086561 43.03879 -52.301877 160.057616 -3.316278 -112.731202 -23.904531 -61.333706 -1.399409 114.337679 59.214385 -104.538347 0.022275 -1.72498 0.54359 -9.373866 12.724272 -1.661933 85.783239 -50.536305 84.155177 153.550452 35.469054 146.9538 -0.0009 -0.000668 0.001158 -15.692933 -15.902149 -69.061793 -77.026331 19.321982 156.940532 -168.54261 -58.903342 110.061673 0.00147 0.000921 0.000735 50.455466 -60.239284 46.907784 30.07233 61.552044 31.86296 51.07967 -62.153284 -65.1835
-66.2229 53.501 71.6753 -159.199669 75.234755 -158.289596 -4.103788 15.44474 -0.0 1.93324 -7.024978 4.867333 -8.55666 17.816335 -40.909648 32.334629 -12.526902 67.252017 -0.005106 -0.0 0.003025 0.000616 0.0 0.00277 -82.877669 68.300323 86.000551 39.64367 29.647108 54.81085 -173.692425 62.38228 33.656595 -148.691327 26.555583 131.0921 -169.319571 -7.000823 89.922386 23.943332 -62.247649 21.80838 -152.811929 -19.87355 121.572282 1.034077 19.628055 -5.42129 -0.569958 1.648513 0.322392 -114.294735 59.298364 104.697388 0.00276 0.917859 0.287863 -152.233168 28.310055 167.39207 -145.171267 12.067768 -141.823466 -126.570071 -29.682826 -124.089839 155.578117 -3.999546 -161.94113 -108.683135 46.613379 87.057453 -97.255503 -53.025607 -67.705793 -166.092987 1.556472 -160.71764 89.135967 38.42716 -50.299268 7.001749 -14.066916 -27.67617 -88.792589 -75.498463 -40.050136 13.789934 38.658919 -10.672448 160.99168 -7.659654 -143.391657 -2.652879 1.632552 -0.585988 72.351769 72.973267 -90.218915 -5.684763 15.805785 2.457534 134.874871 -13.75852 132.28538 113.588145 -41.194707 112.444285 -0.004672 0.00194 -0.002336 -13.94497 -19.069338 -180.0 32.741239 -75.415578 -110.199486 -73.850262 24.464431 -15.019809 -0.0 -0.001081 -0.000841 44.384565 -59.186743 -0.0 -52.36304 52.85636 -127.842828 -81.972666 1.55202 153.839047
-68.3368 54.5211 74.6953 -162.042664 73.74394 -162.165004 -4.047565 16.440233 0.985287 0.976053 -6.338286 3.675326 7.181896 16.751133 54.367673 -26.130301 -15.808941 -37.369576 -0.002305 0.0 -0.000915 0.003418 -0.0 -0.001078 -33.835312 -85.665833 -55.252878 -34.430779 12.557186 -36.520314 166.400328 32.679509 -60.279625 -16.867893 -21.70036 -5.176877 -171.60304 -9.286393 89.949967 73.10651 -68.406716 55.903463 -148.884968 -12.610501 120.243961 11.844588 -2.226037 -10.069993 0.541934 -1.589853 -0.294432 -55.981709 62.338001 49.201199 -72.964499 -72.142972 -89.990196 -64.978937 -82.36727 -90.938125 -162.896088 73.157024 -150.75964 -127.604809 -30.200427 -124.452589 136.303369 48.980434 -140.374857 -139.733358 21.911768 153.202505 6.323669 30.269646 -24.867285 7.962217 58.103055 -10.505618 -93.02844 -51.083888 -40.500905 163.419804 -79.205237 -153.83956 -60.461671 -70.523642 -15.710855 155.757263 -14.008066 -115.055491 -89.035826 -81.392407 -59.760724 172.572785 -31.813483 -143.840706 145.119332 0.227185 179.198378 66.966608 87.68878 -80.216046 26.562175 -38.861718 25.605006 139.716102 -7.63677 137.653753 -179.843649 75.748434 -0.120505 164.440776 56.608934 -42.147676 -81.668956 9.471059 6.967366 -161.137 -61.99201 -69.992681 179.994792 75.750107 0.005373 -161.350942 11.053606 -180.0 -13.452241 -55.476953 52.311775 -34.180031 39.926416 104.125215
